# xmcd CD database file
#
# Track frame offsets:
#	150
#	30418
#	59027
#	85790
#	108633
#	125457
#	147212
#	168098
#	193112
#	211860
#	235925
#	259011
#	285455
#
# Disc length: 3964 seconds
#
# Revision: 0
# Processed by: cddbd v1.4PL0 Copyright (c) Steve Scherf et al.
# Submitted via: CDex 1.50beta10
#
DISCID=b50f7a0d
DTITLE=David Calzado y su charanga habanera - Soy cubano, soy popular
DYEAR=1900
DGENRE=Salsa
TTITLE0=Soy cubano, soy popular
TTITLE1=El Bony
TTITLE2=Timba con maña
TTITLE3=Abusadora
TTITLE4=Vuelve junto a mi
TTITLE5=La gorda
TTITLE6=Otra mujer
TTITLE7=Marina
TTITLE8=Entra en mi vida
TTITLE9=Mujeres
TTITLE10=Somos los cubanos
TTITLE11=Entra en mi vida (Version Salsa)
TTITLE12=Soy popular (Opening)
EXTD=
EXTT0=
EXTT1=
EXTT2=
EXTT3=
EXTT4=
EXTT5=
EXTT6=
EXTT7=
EXTT8=
EXTT9=
EXTT10=
EXTT11=
EXTT12=
PLAYORDER=
